# xmcd CD database file
#
# Track frame offsets:
#	150
#	3790
#	26180
#	54577
#	76650
#	99250
#	123937
#	147242
#	166417
#	184042
#	270740
#
# Disc length: 3659 seconds
#
# Revision: 0
# Processed by: cddbd v1.5.2PL0 Copyright (c) Steve Scherf et al.
# Submitted via: CDex 2.00
#
DISCID=830e490b
DTITLE=Magic Carpet II - Once Moor
DYEAR=1996
DGENRE=Jazz
TTITLE0=Bean to Sea
TTITLE1=Thanks Be
TTITLE2=All the Sins of Man
TTITLE3=Let it Go
TTITLE4=Feast Your Eyes
TTITLE5=Understand
TTITLE6=The Little Seed
TTITLE7=See the Man
TTITLE8=Once Moor
TTITLE9=Raga Basant Mukhari
TTITLE10=Bean to Sea Again
EXTD=YEAR: 1996
EXTT0=
EXTT1=
EXTT2=
EXTT3=
EXTT4=
EXTT5=
EXTT6=
EXTT7=
EXTT8=
EXTT9=
EXTT10=
PLAYORDER=
